<svg width="212" height="16" viewBox="0 0 212 16" fill="none" xmlns="http://www.w3.org/2000/svg">
<rect width="2" height="16" rx="1" fill="#333333"/>
<rect x="5" y="2" width="2" height="12" rx="1" fill="#333333"/>
<rect x="10" y="6" width="2" height="5" rx="1" fill="#333333"/>
<rect x="15" width="2" height="16" rx="1" fill="#333333"/>
<rect x="20" y="2" width="2" height="12" rx="1" fill="#333333"/>
<rect x="160" width="2" height="16" rx="1" fill="#828282"/>
<rect x="165" y="2" width="2" height="12" rx="1" fill="#828282"/>
<rect x="170" y="6" width="2" height="5" rx="1" fill="#828282"/>
<rect x="175" width="2" height="16" rx="1" fill="#828282"/>
<rect x="180" y="2" width="2" height="12" rx="1" fill="#828282"/>
<rect x="25" width="2" height="16" rx="1" fill="#333333"/>
<rect x="30" y="3" width="2" height="11" rx="1" fill="#333333"/>
<rect x="35" y="6" width="2" height="5" rx="1" fill="#333333"/>
<rect x="40" width="2" height="16" rx="1" fill="#333333"/>
<rect x="45" y="2" width="2" height="13" rx="1" fill="#333333"/>
<rect x="50" y="2" width="2" height="13" rx="1" fill="#333333"/>
<rect x="55" width="2" height="16" rx="1" fill="#333333"/>
<rect x="60" y="6" width="2" height="5" rx="1" fill="#333333"/>
<rect x="65" width="2" height="16" rx="1" fill="#333333"/>
<rect x="70" y="2" width="2" height="12" rx="1" fill="#333333"/>
<rect x="75" width="2" height="16" rx="1" fill="#333333"/>
<rect x="80" y="6" width="2" height="5" rx="1" fill="#333333"/>
<rect x="85" width="2" height="16" rx="1" fill="#333333"/>
<rect x="90" y="3" width="2" height="11" rx="1" fill="#333333"/>
<rect x="95" y="4" width="2" height="9" rx="1" fill="#333333"/>
<rect x="100" width="2" height="16" rx="1" fill="#333333"/>
<rect x="105" y="4" width="2" height="9" rx="1" fill="#333333"/>
<rect x="110" width="2" height="16" rx="1" fill="#333333"/>
<rect x="115" width="2" height="16" rx="1" fill="#828282"/>
<rect x="120" y="2" width="2" height="12" rx="1" fill="#828282"/>
<rect x="125" width="2" height="16" rx="1" fill="#828282"/>
<rect x="130" y="2" width="2" height="12" rx="1" fill="#828282"/>
<rect x="135" width="2" height="16" rx="1" fill="#828282"/>
<rect x="140" y="6" width="2" height="5" rx="1" fill="#828282"/>
<rect x="145" width="2" height="16" rx="1" fill="#828282"/>
<rect x="150" width="2" height="16" rx="1" fill="#828282"/>
<rect x="155" y="2" width="2" height="12" rx="1" fill="#828282"/>
<rect x="190" width="2" height="16" rx="1" fill="#828282"/>
<rect x="195" y="2" width="2" height="12" rx="1" fill="#828282"/>
<rect x="200" y="6" width="2" height="5" rx="1" fill="#828282"/>
<rect x="205" width="2" height="16" rx="1" fill="#828282"/>
<rect x="210" y="2" width="2" height="12" rx="1" fill="#828282"/>
<rect x="185" y="2" width="2" height="12" rx="1" fill="#828282"/>
</svg>
