<svg width="20" height="21" viewBox="0 0 20 21" fill="none" xmlns="http://www.w3.org/2000/svg">
<path d="M9 21C8.42149 21 7.92562 20.7946 7.5124 20.3838C7.09917 19.973 6.89256 19.4883 6.89256 18.9296H11.1074C11.1074 19.4883 10.9008 19.973 10.4876 20.3838C10.0744 20.7946 9.57851 21 9 21ZM15.8678 14.6901L18 16.8099V17.8451H0V16.8099L2.13223 14.6901V8.92253C2.13223 7.31221 2.6281 5.89085 3.61983 4.65845C4.61157 3.42606 5.86777 2.62911 7.38843 2.26761V1.57746C7.38843 1.11737 7.54545 0.739437 7.8595 0.443662C8.17355 0.147887 8.55372 0 9 0C9.44628 0 9.81818 0.147887 10.1157 0.443662C10.4132 0.739437 10.562 1.11737 10.562 1.57746V2.26761C12.1157 2.62911 13.3884 3.42606 14.3802 4.65845C15.3719 5.89085 15.8678 7.31221 15.8678 8.92253V14.6901ZM13.7355 15.7746V8.92253C13.7355 7.60798 13.2727 6.49061 12.3471 5.57042C11.4215 4.65023 10.2975 4.19014 8.97521 4.19014C7.65289 4.19014 6.52893 4.65023 5.60331 5.57042C4.67769 6.49061 4.21488 7.60798 4.21488 8.92253V15.7746H13.7355Z" fill="#333333"/>
<circle cx="14" cy="8" r="4.65" fill="#E51A4B" stroke="#FBFBFB" stroke-width="1.3"/>
</svg>
